<mxfile host="app.diagrams.net" modified="2022-10-24T10:12:43.109Z" agent="5.0 (Windows)" etag="Kj3uhAU6MmwwfoAtV6U2" version="20.4.2" type="github">
  <diagram id="bIWQnkgKnb1iKX2YM1q4" name="第 1 页">
    <mxGraphModel dx="1550" dy="1985" grid="1" gridSize="10" guides="1" tooltips="1" connect="1" arrows="1" fold="1" page="1" pageScale="1" pageWidth="827" pageHeight="1169" math="0" shadow="0">
      <root>
        <mxCell id="0" />
        <mxCell id="1" parent="0" />
        <mxCell id="3HGVwoqAxrIfjeEcFq73-3" value="" style="edgeStyle=orthogonalEdgeStyle;rounded=0;orthogonalLoop=1;jettySize=auto;html=1;" parent="1" source="3HGVwoqAxrIfjeEcFq73-1" target="3HGVwoqAxrIfjeEcFq73-2" edge="1">
          <mxGeometry relative="1" as="geometry" />
        </mxCell>
        <mxCell id="3HGVwoqAxrIfjeEcFq73-1" value="&lt;font style=&quot;font-size: 14px;&quot;&gt;Sketchup插件绘制建筑物，生成楼间距信息，并计算points（包含楼栋外边框和房间为单位的边框）&lt;/font&gt;" style="whiteSpace=wrap;html=1;aspect=fixed;fillColor=#dae8fc;strokeColor=#6c8ebf;" parent="1" vertex="1">
          <mxGeometry x="245" y="-40" width="160" height="160" as="geometry" />
        </mxCell>
        <mxCell id="3HGVwoqAxrIfjeEcFq73-6" value="" style="edgeStyle=orthogonalEdgeStyle;rounded=0;orthogonalLoop=1;jettySize=auto;html=1;fontSize=14;" parent="1" source="3HGVwoqAxrIfjeEcFq73-2" target="3HGVwoqAxrIfjeEcFq73-5" edge="1">
          <mxGeometry relative="1" as="geometry" />
        </mxCell>
        <mxCell id="3HGVwoqAxrIfjeEcFq73-2" value="&lt;font style=&quot;font-size: 14px;&quot;&gt;在sketchup打开玄武的新建模型页面,并自动上传并填充dae文件，skp文件，points的json文件。新建时根据points计算出radius和boundary，并解析组名自动绑定楼栋和楼间距&lt;/font&gt;" style="rounded=0;whiteSpace=wrap;html=1;fillColor=#fff2cc;strokeColor=#d6b656;" parent="1" vertex="1">
          <mxGeometry x="230" y="190" width="190" height="130" as="geometry" />
        </mxCell>
        <mxCell id="3HGVwoqAxrIfjeEcFq73-4" value="导出" style="text;html=1;align=center;verticalAlign=middle;resizable=0;points=[];autosize=1;strokeColor=none;fillColor=none;fontSize=14;" parent="1" vertex="1">
          <mxGeometry x="320" y="140" width="50" height="30" as="geometry" />
        </mxCell>
        <mxCell id="3HGVwoqAxrIfjeEcFq73-10" value="" style="edgeStyle=orthogonalEdgeStyle;rounded=0;orthogonalLoop=1;jettySize=auto;html=1;fontSize=14;" parent="1" source="3HGVwoqAxrIfjeEcFq73-5" target="3HGVwoqAxrIfjeEcFq73-9" edge="1">
          <mxGeometry relative="1" as="geometry" />
        </mxCell>
        <mxCell id="luffGVeJshWlsdDIgBNH-5" value="" style="edgeStyle=orthogonalEdgeStyle;rounded=0;orthogonalLoop=1;jettySize=auto;html=1;" edge="1" parent="1" source="3HGVwoqAxrIfjeEcFq73-5" target="luffGVeJshWlsdDIgBNH-4">
          <mxGeometry relative="1" as="geometry" />
        </mxCell>
        <mxCell id="luffGVeJshWlsdDIgBNH-8" value="" style="edgeStyle=orthogonalEdgeStyle;rounded=0;orthogonalLoop=1;jettySize=auto;html=1;" edge="1" parent="1" source="3HGVwoqAxrIfjeEcFq73-5" target="luffGVeJshWlsdDIgBNH-7">
          <mxGeometry relative="1" as="geometry" />
        </mxCell>
        <mxCell id="3HGVwoqAxrIfjeEcFq73-5" value="&lt;font style=&quot;font-size: 14px;&quot;&gt;根据dae渲染出模型，可以切换选择模式，方便绑定楼栋，单元和房号。&lt;/font&gt;" style="whiteSpace=wrap;html=1;fillColor=#d5e8d4;strokeColor=#82b366;rounded=0;" parent="1" vertex="1">
          <mxGeometry x="241.25" y="380" width="167.5" height="110" as="geometry" />
        </mxCell>
        <mxCell id="3HGVwoqAxrIfjeEcFq73-8" value="绑定" style="text;html=1;align=center;verticalAlign=middle;resizable=0;points=[];autosize=1;strokeColor=none;fillColor=none;fontSize=14;" parent="1" vertex="1">
          <mxGeometry x="320" y="340" width="50" height="30" as="geometry" />
        </mxCell>
        <mxCell id="luffGVeJshWlsdDIgBNH-2" value="" style="edgeStyle=orthogonalEdgeStyle;rounded=0;orthogonalLoop=1;jettySize=auto;html=1;" edge="1" parent="1" source="3HGVwoqAxrIfjeEcFq73-9" target="luffGVeJshWlsdDIgBNH-1">
          <mxGeometry relative="1" as="geometry" />
        </mxCell>
        <mxCell id="3HGVwoqAxrIfjeEcFq73-9" value="根据dae文件渲染出日照模型，计算出房间为单位的日照数据" style="whiteSpace=wrap;html=1;fillColor=#e1d5e7;strokeColor=#9673a6;rounded=0;" parent="1" vertex="1">
          <mxGeometry x="240" y="540" width="170" height="110" as="geometry" />
        </mxCell>
        <mxCell id="3HGVwoqAxrIfjeEcFq73-11" value="生成日照" style="text;html=1;align=center;verticalAlign=middle;resizable=0;points=[];autosize=1;strokeColor=none;fillColor=none;fontSize=14;" parent="1" vertex="1">
          <mxGeometry x="315" y="500" width="80" height="30" as="geometry" />
        </mxCell>
        <mxCell id="luffGVeJshWlsdDIgBNH-1" value="根据dae文件渲染模型，并根据房间填充材质" style="rounded=0;whiteSpace=wrap;html=1;fillColor=#f8cecc;strokeColor=#b85450;" vertex="1" parent="1">
          <mxGeometry x="242.5" y="720" width="165" height="105" as="geometry" />
        </mxCell>
        <mxCell id="luffGVeJshWlsdDIgBNH-3" value="渲染日照" style="text;html=1;align=center;verticalAlign=middle;resizable=0;points=[];autosize=1;strokeColor=none;fillColor=none;fontSize=14;" vertex="1" parent="1">
          <mxGeometry x="315" y="670" width="80" height="30" as="geometry" />
        </mxCell>
        <mxCell id="luffGVeJshWlsdDIgBNH-11" value="" style="edgeStyle=orthogonalEdgeStyle;rounded=0;orthogonalLoop=1;jettySize=auto;html=1;" edge="1" parent="1" source="luffGVeJshWlsdDIgBNH-4" target="luffGVeJshWlsdDIgBNH-10">
          <mxGeometry relative="1" as="geometry" />
        </mxCell>
        <mxCell id="luffGVeJshWlsdDIgBNH-4" value="根据房间的points信息，计算近地线，计算出房间为单位的噪音数据" style="rounded=0;whiteSpace=wrap;html=1;fillColor=#e1d5e7;strokeColor=#9673a6;" vertex="1" parent="1">
          <mxGeometry x="17.5" y="550" width="132.5" height="70" as="geometry" />
        </mxCell>
        <mxCell id="luffGVeJshWlsdDIgBNH-6" value="生成噪音" style="text;html=1;align=center;verticalAlign=middle;resizable=0;points=[];autosize=1;strokeColor=none;fillColor=none;fontSize=14;" vertex="1" parent="1">
          <mxGeometry x="150" y="405" width="80" height="30" as="geometry" />
        </mxCell>
        <mxCell id="luffGVeJshWlsdDIgBNH-7" value="&lt;font style=&quot;font-size: 14px;&quot;&gt;模型接口返回dae渲染模型，实现点击交互&lt;/font&gt;" style="whiteSpace=wrap;html=1;fillColor=#f8cecc;strokeColor=#b85450;rounded=0;" vertex="1" parent="1">
          <mxGeometry x="512.5" y="720" width="157.5" height="100" as="geometry" />
        </mxCell>
        <mxCell id="luffGVeJshWlsdDIgBNH-9" value="渲染楼栋" style="text;html=1;align=center;verticalAlign=middle;resizable=0;points=[];autosize=1;strokeColor=none;fillColor=none;fontSize=14;" vertex="1" parent="1">
          <mxGeometry x="590" y="650" width="80" height="30" as="geometry" />
        </mxCell>
        <mxCell id="luffGVeJshWlsdDIgBNH-10" value="根据dae文件渲染模型，并根据房间填充材质" style="whiteSpace=wrap;html=1;fillColor=#f8cecc;strokeColor=#b85450;rounded=0;" vertex="1" parent="1">
          <mxGeometry x="11.879999999999999" y="720" width="143.75" height="90" as="geometry" />
        </mxCell>
        <mxCell id="luffGVeJshWlsdDIgBNH-12" value="渲染噪音" style="text;html=1;align=center;verticalAlign=middle;resizable=0;points=[];autosize=1;strokeColor=none;fillColor=none;fontSize=14;" vertex="1" parent="1">
          <mxGeometry x="80" y="650" width="80" height="30" as="geometry" />
        </mxCell>
      </root>
    </mxGraphModel>
  </diagram>
</mxfile>
